<svg xmlns="http://www.w3.org/2000/svg" viewBox="0 0 800 600" role="img" aria-label="Handmade gift box">
  <defs>
    <linearGradient id="bg" x1="0" y1="0" x2="1" y2="1">
      <stop offset="0%" stop-color="#fff5ea"/>
      <stop offset="100%" stop-color="#ffd5b8"/>
    </linearGradient>
    <linearGradient id="box" x1="0" y1="0" x2="0" y2="1">
      <stop offset="0%" stop-color="#ff8c62"/>
      <stop offset="100%" stop-color="#e46035"/>
    </linearGradient>
  </defs>
  <rect width="800" height="600" fill="url(#bg)"/>
  <circle cx="120" cy="90" r="50" fill="#fff" opacity="0.35"/>
  <circle cx="690" cy="510" r="85" fill="#ffb991" opacity="0.35"/>
  <rect x="220" y="250" width="360" height="210" rx="22" fill="url(#box)"/>
  <rect x="190" y="210" width="420" height="60" rx="16" fill="#ff9f7a"/>
  <rect x="380" y="210" width="40" height="250" fill="#ffe4c9" opacity="0.92"/>
  <path d="M400 210 C360 165, 305 170, 298 214 C292 250, 338 264, 372 236 C386 224, 394 214, 400 210 Z" fill="#ffd7b8"/>
  <path d="M400 210 C440 165, 495 170, 502 214 C508 250, 462 264, 428 236 C414 224, 406 214, 400 210 Z" fill="#ffd7b8"/>
</svg>
