<svg xmlns="http://www.w3.org/2000/svg" viewBox="0 0 800 600" role="img" aria-label="Handmade macrame wall decor">
  <defs>
    <linearGradient id="bg" x1="0" y1="0" x2="1" y2="1">
      <stop offset="0%" stop-color="#fffaf4"/>
      <stop offset="100%" stop-color="#ffe0c0"/>
    </linearGradient>
  </defs>
  <rect width="800" height="600" fill="url(#bg)"/>
  <rect x="210" y="120" width="380" height="16" rx="8" fill="#b47f54"/>
  <line x1="260" y1="136" x2="260" y2="450" stroke="#f2d4b7" stroke-width="12"/>
  <line x1="310" y1="136" x2="310" y2="470" stroke="#f0cfad" stroke-width="12"/>
  <line x1="360" y1="136" x2="360" y2="500" stroke="#f6dbc1" stroke-width="12"/>
  <line x1="410" y1="136" x2="410" y2="470" stroke="#f0cfad" stroke-width="12"/>
  <line x1="460" y1="136" x2="460" y2="450" stroke="#f2d4b7" stroke-width="12"/>
  <line x1="510" y1="136" x2="510" y2="420" stroke="#f6dbc1" stroke-width="12"/>
  <path d="M260 255 Q310 300 360 255 Q410 300 460 255 Q510 300 560 255" fill="none" stroke="#d8ac81" stroke-width="6" opacity="0.65"/>
  <path d="M260 335 Q310 380 360 335 Q410 380 460 335 Q510 380 560 335" fill="none" stroke="#d8ac81" stroke-width="6" opacity="0.65"/>
  <circle cx="360" cy="500" r="9" fill="#d7a67c"/>
  <circle cx="410" cy="470" r="9" fill="#d7a67c"/>
  <circle cx="310" cy="470" r="9" fill="#d7a67c"/>
</svg>
