<svg xmlns="http://www.w3.org/2000/svg" viewBox="0 0 800 600" role="img" aria-label="Handmade soy candle">
  <defs>
    <linearGradient id="bg" x1="0" y1="0" x2="1" y2="1">
      <stop offset="0%" stop-color="#fff8f0"/>
      <stop offset="100%" stop-color="#ffe6cc"/>
    </linearGradient>
    <linearGradient id="glass" x1="0" y1="0" x2="0" y2="1">
      <stop offset="0%" stop-color="#ffffff" stop-opacity="0.75"/>
      <stop offset="100%" stop-color="#ffdcbf" stop-opacity="0.92"/>
    </linearGradient>
  </defs>
  <rect width="800" height="600" fill="url(#bg)"/>
  <ellipse cx="400" cy="495" rx="170" ry="38" fill="#f2b88f" opacity="0.42"/>
  <rect x="280" y="175" width="240" height="295" rx="38" fill="url(#glass)" stroke="#e9b98f" stroke-width="6"/>
  <rect x="305" y="250" width="190" height="200" rx="22" fill="#ffe7cc"/>
  <rect x="392" y="205" width="16" height="52" rx="8" fill="#7d533d"/>
  <path d="M400 178 C384 152, 390 130, 400 116 C410 130, 416 152, 400 178 Z" fill="#ff8f42"/>
  <path d="M400 170 C392 154, 395 141, 400 133 C405 141, 408 154, 400 170 Z" fill="#ffd180"/>
  <circle cx="336" cy="220" r="14" fill="#ffffff" opacity="0.35"/>
</svg>
