<svg width="96" height="96" viewBox="0 0 96 96" fill="none" xmlns="http://www.w3.org/2000/svg" role="img" aria-labelledby="title desc">
  <title id="title">Лого повітряної кульки</title>
  <desc id="desc">Стилізована повітряна кулька у теплих пастельних кольорах.</desc>
  <defs>
    <linearGradient id="balloonGradient" x1="26" y1="14" x2="68" y2="66" gradientUnits="userSpaceOnUse">
      <stop offset="0" stop-color="#EF9555"/>
      <stop offset="0.5" stop-color="#53D3D1"/>
      <stop offset="1" stop-color="#C19BDA"/>
    </linearGradient>
    <linearGradient id="knotGradient" x1="44" y1="60" x2="54" y2="72" gradientUnits="userSpaceOnUse">
      <stop offset="0" stop-color="#E6D96F"/>
      <stop offset="1" stop-color="#EF9555"/>
    </linearGradient>
    <linearGradient id="stringGradient" x1="48" y1="71" x2="48" y2="92" gradientUnits="userSpaceOnUse">
      <stop offset="0" stop-color="#2F7F87"/>
      <stop offset="1" stop-color="#8765B4"/>
    </linearGradient>
  </defs>

  <ellipse cx="47" cy="38" rx="23" ry="26" fill="url(#balloonGradient)"/>
  <path d="M33 34C33 22.7 41.3 14 52 14C55.5 14 58.7 15 61.4 16.7C57.9 13.1 53.1 11 47.9 11C37.5 11 29 19.5 29 30C29 39.3 35.6 47.1 44.3 48.9C37.7 45.7 33 40.2 33 34Z" fill="white" fill-opacity="0.26"/>
  <path d="M45 60L41 65L47 71L54 65L50 60H45Z" fill="url(#knotGradient)"/>
  <path d="M48 71C48.2 75 43.8 77.7 44.1 81.4C44.3 84.5 47.3 85.6 48 88C48.8 90.7 46.3 92.8 45.2 93.5" stroke="url(#stringGradient)" stroke-width="3" stroke-linecap="round"/>
</svg>
